<svg xmlns="http://www.w3.org/2000/svg" xmlns:xlink="http://www.w3.org/1999/xlink" version="1.0" x="0" y="0" width="2400" height="2533.5614336383805" viewBox="104.32347686767578 55.668539123535155 131.35304626464844 138.6629217529297" preserveAspectRatio="xMidYMid meet" color-interpolation-filters="sRGB"><g><defs><linearGradient id="92" x1="0%" y1="0%" x2="100%" y2="0%"><stop offset="0%" stop-color="#fa71cd"></stop> <stop offset="100%" stop-color="#9b59b6"></stop></linearGradient><linearGradient id="93" x1="0%" y1="0%" x2="100%" y2="0%"><stop offset="0%" stop-color="#f9d423"></stop> <stop offset="100%" stop-color="#f83600"></stop></linearGradient><linearGradient id="94" x1="0%" y1="0%" x2="100%" y2="0%"><stop offset="0%" stop-color="#0064d2"></stop> <stop offset="100%" stop-color="#1cb0f6"></stop></linearGradient><linearGradient id="95" x1="0%" y1="0%" x2="100%" y2="0%"><stop offset="0%" stop-color="#f00978"></stop> <stop offset="100%" stop-color="#3f51b1"></stop></linearGradient><linearGradient id="96" x1="0%" y1="0%" x2="100%" y2="0%"><stop offset="0%" stop-color="#7873f5"></stop> <stop offset="100%" stop-color="#ec77ab"></stop></linearGradient><linearGradient id="97" x1="0%" y1="0%" x2="100%" y2="0%"><stop offset="0%" stop-color="#f9d423"></stop> <stop offset="100%" stop-color="#e14fad"></stop></linearGradient><linearGradient id="98" x1="0%" y1="0%" x2="100%" y2="0%"><stop offset="0%" stop-color="#009efd"></stop> <stop offset="100%" stop-color="#2af598"></stop></linearGradient><linearGradient id="99" x1="0%" y1="0%" x2="100%" y2="0%"><stop offset="0%" stop-color="#ffcc00"></stop> <stop offset="100%" stop-color="#00b140"></stop></linearGradient><linearGradient id="100" x1="0%" y1="0%" x2="100%" y2="0%"><stop offset="0%" stop-color="#d51007"></stop> <stop offset="100%" stop-color="#ff8177"></stop></linearGradient><linearGradient id="102" x1="0%" y1="0%" x2="100%" y2="0%"><stop offset="0%" stop-color="#a2b6df"></stop> <stop offset="100%" stop-color="#0c3483"></stop></linearGradient><linearGradient id="103" x1="0%" y1="0%" x2="100%" y2="0%"><stop offset="0%" stop-color="#7ac5d8"></stop> <stop offset="100%" stop-color="#eea2a2"></stop></linearGradient><linearGradient id="104" x1="0%" y1="0%" x2="100%" y2="0%"><stop offset="0%" stop-color="#00ecbc"></stop> <stop offset="100%" stop-color="#007adf"></stop></linearGradient><linearGradient id="105" x1="0%" y1="0%" x2="100%" y2="0%"><stop offset="0%" stop-color="#b88746"></stop> <stop offset="100%" stop-color="#fdf5a6"></stop></linearGradient></defs><g fill="#ffffff" class="icon-text-wrapper icon-svg-group iconsvg" transform="translate(105.61125183105469,56.95631408691406)"><g class="iconsvg-imagesvg" transform="translate(34.38874816894531,0)"><g><rect fill="#ffffff" fill-opacity="0" stroke-width="2" x="0" y="0" width="60" height="67.13136489253388" class="image-rect"></rect> <svg filter="url(#colors1931679272)" x="0" y="0" width="60" height="67.13136489253388" filtersec="colorsf2404598844" class="image-svg-svg primary" style="overflow: visible;"><svg xmlns="http://www.w3.org/2000/svg" xmlns:xlink="http://www.w3.org/1999/xlink" version="1.1" x="0px" y="0px" viewBox="8.718185424804688 5 62.563636779785156 70" enable-background="new 0 0 80 80" xml:space="preserve"><g><circle cx="40" cy="40" r="4.6"></circle><path d="M64.4,40c0.8-0.9,1.6-1.8,2.3-2.8c4.4-5.9,5.7-11.1,3.6-14.7c-1.7-2.9-5.4-4.5-10.6-4.5c-2.3,0-4.8,0.3-7.5,0.9   c-0.4-1.2-0.8-2.3-1.3-3.4C48.1,8.8,44.2,5,40,5c-4.2,0-8.1,3.7-10.9,10.5c-0.5,1.1-0.9,2.2-1.3,3.4c-2.7-0.6-5.2-0.9-7.5-0.9   c-5.3,0-8.9,1.5-10.6,4.5c-2.1,3.6-0.8,8.9,3.6,14.7c0.7,0.9,1.5,1.9,2.3,2.8c-0.8,0.9-1.6,1.8-2.3,2.8c-4.4,5.9-5.7,11.1-3.6,14.7   c1.7,2.9,5.4,4.5,10.6,4.5c2.3,0,4.8-0.3,7.5-0.9c0.4,1.2,0.8,2.3,1.3,3.4C31.9,71.2,35.8,75,40,75c4.2,0,8.1-3.7,10.9-10.5   c0.5-1.1,0.9-2.2,1.3-3.4c2.7,0.6,5.2,0.9,7.5,0.9c5.3,0,8.9-1.5,10.6-4.5c2.1-3.6,0.8-8.9-3.6-14.7C66,41.8,65.2,40.9,64.4,40z    M59.7,19.6c5.9,0,8.3,2,9.2,3.7c1.7,3,0.4,7.7-3.5,13c-0.6,0.9-1.4,1.7-2.1,2.6c-2.4-2.5-5.3-5-8.5-7.4c-0.4-3.9-1.1-7.7-2.1-11   C55.2,19.9,57.5,19.6,59.7,19.6z M46.8,51.8c-2.3,1.3-4.5,2.5-6.8,3.5c-2.3-1-4.6-2.2-6.8-3.5c-2.3-1.3-4.4-2.7-6.4-4.1   c-0.2-2.5-0.4-5-0.4-7.7c0-2.6,0.1-5.2,0.4-7.7c2-1.4,4.2-2.8,6.4-4.1c2.3-1.3,4.5-2.5,6.8-3.5c2.3,1,4.6,2.2,6.8,3.5   c2.3,1.3,4.4,2.7,6.4,4.1c0.2,2.5,0.4,5,0.4,7.7c0,2.6-0.1,5.2-0.4,7.7C51.2,49.1,49.1,50.5,46.8,51.8z M53,49.8   c-0.4,3.4-1.1,6.6-1.9,9.5c-2.9-0.7-6-1.8-9.2-3.1c1.9-0.9,3.8-1.9,5.7-3C49.5,52.1,51.3,50.9,53,49.8z M38.1,56.1   c-3.1,1.3-6.2,2.4-9.2,3.1c-0.9-2.9-1.5-6.1-1.9-9.5c1.7,1.2,3.5,2.3,5.4,3.4C34.3,54.3,36.2,55.2,38.1,56.1z M25,46.4   c-2.7-2.1-5.2-4.2-7.2-6.4c2.1-2.2,4.5-4.4,7.2-6.4c-0.2,2.1-0.3,4.2-0.3,6.4C24.8,42.2,24.9,44.3,25,46.4z M27,30.2   c0.4-3.4,1.1-6.6,1.9-9.5c2.9,0.7,6,1.8,9.2,3.1c-1.9,0.9-3.8,1.9-5.7,3C30.5,27.9,28.7,29.1,27,30.2z M41.9,23.9   c3.1-1.3,6.2-2.4,9.2-3.1c0.9,2.9,1.5,6.1,1.9,9.5c-1.7-1.2-3.5-2.3-5.4-3.4C45.7,25.7,43.8,24.8,41.9,23.9z M55,33.6   c2.7,2.1,5.2,4.2,7.2,6.4c-2.1,2.2-4.5,4.4-7.2,6.4c0.2-2.1,0.3-4.2,0.3-6.4C55.2,37.8,55.1,35.7,55,33.6z M30.5,16.1   c2.6-6.1,6-9.5,9.5-9.5s6.9,3.5,9.5,9.5c0.4,1,0.8,2,1.2,3.1c-3.4,0.8-7,2.1-10.6,3.7c-3.6-1.6-7.2-2.9-10.6-3.7   C29.7,18.2,30.1,17.1,30.5,16.1z M14.6,36.3c-4-5.2-5.2-10-3.5-13c1.8-3,6-3.7,9.2-3.7c2.1,0,4.5,0.3,7,0.8c-1,3.4-1.7,7.1-2.1,11   c-3.2,2.3-6.1,4.8-8.5,7.4C16,38,15.3,37.1,14.6,36.3z M20.3,60.4c-5.9,0-8.3-2-9.2-3.7c-1.7-3-0.4-7.7,3.5-13   c0.6-0.9,1.4-1.7,2.1-2.6c2.4,2.5,5.3,5,8.5,7.4c0.4,3.9,1.1,7.7,2.1,11C24.8,60.1,22.5,60.4,20.3,60.4z M49.5,63.9   c-2.6,6.1-6,9.5-9.5,9.5s-6.9-3.5-9.5-9.5c-0.4-1-0.8-2-1.2-3.1c3.4-0.8,7-2.1,10.6-3.7c3.6,1.6,7.2,2.9,10.6,3.7   C50.3,61.8,49.9,62.9,49.5,63.9z M68.9,56.7c-1.8,3-6,3.7-9.2,3.7c-2.1,0-4.5-0.3-7-0.8c1-3.4,1.7-7.1,2.1-11   c3.2-2.3,6.1-4.8,8.5-7.4c0.8,0.9,1.5,1.7,2.1,2.6C69.4,49,70.6,53.7,68.9,56.7z"></path></g></svg></svg> <defs><filter id="colors1931679272"><feColorMatrix type="matrix" values="0 0 0 0 0.99609375  0 0 0 0 0.99609375  0 0 0 0 0.99609375  0 0 0 1 0" class="icon-feColorMatrix "></feColorMatrix></filter> <filter id="colorsf2404598844"><feColorMatrix type="matrix" values="0 0 0 0 0.99609375  0 0 0 0 0.99609375  0 0 0 0 0.99609375  0 0 0 1 0" class="icon-fecolormatrix"></feColorMatrix></filter> <filter id="colorsb5426269201"><feColorMatrix type="matrix" values="0 0 0 0 0  0 0 0 0 0  0 0 0 0 0  0 0 0 1 0" class="icon-fecolormatrix"></feColorMatrix></filter></defs></g></g> <g transform="translate(0,74.13136291503906)"><g fill-rule="" class="tp-name iconsvg-namesvg" transform="translate(0,0)"><g transform="scale(1)"><g><path d="M3.97-1.95C3.31-1.95 2.99-1.63 2.99-0.98 2.99-0.33 3.31 0 3.97 0L16.32 0C16.96 0 17.29-0.33 17.29-0.98 17.29-1.63 16.96-1.95 16.32-1.95L12.42-1.95C11.77-1.95 11.44-2.27 11.44-2.93L11.44-41.27C11.44-41.99 11.89-41.93 12.09-41.6L38.74-0.98C39.13-0.33 39.65 0 40.37 0L47.52 0C48.16 0 48.49-0.33 48.49-0.98 48.49-1.63 48.16-1.95 47.52-1.95L42.97-1.95C42.32-1.95 41.99-2.27 41.99-2.93L41.99-42.58C41.99-43.23 42.32-43.55 42.97-43.55L47.52-43.55C48.16-43.55 48.49-43.88 48.49-44.52 48.49-45.18 48.16-45.5 47.52-45.5L35.16-45.5C34.52-45.5 34.19-45.18 34.19-44.52 34.19-43.88 34.52-43.55 35.16-43.55L39.07-43.55C39.72-43.55 40.04-43.23 40.04-42.58L40.04-4.23C40.04-3.51 39.59-3.58 39.39-3.9L12.74-44.52C12.35-45.18 11.83-45.5 11.12-45.5L3.97-45.5C3.31-45.5 2.99-45.18 2.99-44.52 2.99-43.88 3.31-43.55 3.97-43.55L8.52-43.55C9.17-43.55 9.49-43.23 9.49-42.58L9.49-2.93C9.49-2.27 9.17-1.95 8.52-1.95L3.97-1.95ZM51.35-45.5C50.7-45.5 50.38-45.18 50.38-44.52 50.38-43.88 50.7-43.55 51.35-43.55L55.25-43.55C55.96-43.55 56.48-43.23 56.88-42.58L70.46-18.98 70.46-2.93C70.46-2.27 70.13-1.95 69.48-1.95L64.94-1.95C64.28-1.95 63.96-1.63 63.96-0.98 63.96-0.33 64.28 0 64.94 0L77.94 0C78.59 0 78.91-0.33 78.91-0.98 78.91-1.63 78.59-1.95 77.94-1.95L73.38-1.95C72.73-1.95 72.41-2.27 72.41-2.93L72.41-19.11 85.93-42.58C86.32-43.23 86.84-43.55 87.56-43.55L91.45-43.55C92.1-43.55 92.43-43.88 92.43-44.52 92.43-45.18 92.1-45.5 91.45-45.5L79.11-45.5C78.45-45.5 78.13-45.18 78.13-44.52 78.13-43.88 78.45-43.55 79.11-43.55L83-43.55C83.72-43.55 83.98-43.09 83.66-42.58L71.83-22.04C71.5-21.58 71.24-21.58 70.91-22.04L59.15-42.58C58.83-43.09 59.09-43.55 59.8-43.55L63.7-43.55C64.35-43.55 64.67-43.88 64.67-44.52 64.67-45.18 64.35-45.5 63.7-45.5L51.35-45.5ZM93.41-22.75C93.41-15.99 95.42-10.4 99.39-5.92 103.35-1.56 108.62 0.65 115.18 0.65 122.2 0.65 127.27-1.76 131.43-5.85 131.88-6.31 131.88-6.76 131.43-7.21 130.98-7.67 130.52-7.67 130.06-7.21 126.36-3.31 121.16-1.3 115.18-1.3 109.27-1.3 104.46-3.31 100.81-7.35 97.18-11.38 95.36-16.51 95.36-22.75 95.36-28.86 97.11-34 100.62-38.09 104.13-42.19 108.55-44.2 113.88-44.2 117.78-44.2 121.49-42.97 125.06-40.43 126.62-39.33 127.99-38.09 129.16-36.73L129.16-32.18C129.16-31.53 129.48-31.2 130.13-31.2 130.78-31.2 131.11-31.53 131.11-32.18L131.11-44.52C131.11-45.18 130.78-45.5 130.13-45.5 129.48-45.5 129.16-45.18 129.16-44.52L129.16-41.27C129.16-40.3 128.83-40.04 128.12-40.63 123.89-44.33 119.15-46.15 113.88-46.15 107.84-46.15 102.96-43.94 99.13-39.45 95.29-35.1 93.41-29.51 93.41-22.75Z" transform="translate(-2.990000009536743, 46.150001525878906)"></path></g> </g></g> <g fill-rule="" class="tp-slogan iconsvg-slogansvg" fill="#ffffff" transform="translate(5,53.80000305175781)"><rect x="0" height="1" y="3.580000400543213" width="12.498748779296875"></rect> <rect height="1" y="3.580000400543213" width="12.498748779296875" x="106.27874755859375"></rect> <g transform="translate(15.498748779296875,0)"><g transform="scale(1)"><path d="M1.08 0L1.08-7.87L3.42-7.87Q4.02-7.87 4.52-7.76Q5.02-7.66 5.37-7.43Q5.72-7.20 5.92-6.83Q6.12-6.47 6.12-5.95L6.12-5.95Q6.12-5.36 5.78-4.89Q5.45-4.42 4.75-4.24L4.75-4.24L4.75-4.19Q5.62-4.06 6.10-3.59Q6.58-3.12 6.58-2.30L6.58-2.30Q6.58-1.73 6.36-1.30Q6.14-0.86 5.75-0.58Q5.35-0.29 4.80-0.14Q4.25 0 3.59 0L3.59 0L1.08 0ZM2.08-4.51L3.24-4.51Q4.26-4.51 4.70-4.86Q5.14-5.21 5.14-5.87L5.14-5.87Q5.14-6.52 4.67-6.80Q4.21-7.08 3.29-7.08L3.29-7.08L2.08-7.08L2.08-4.51ZM2.08-0.79L3.44-0.79Q4.46-0.79 5.03-1.17Q5.59-1.55 5.59-2.35L5.59-2.35Q5.59-3.08 5.04-3.43Q4.49-3.77 3.44-3.77L3.44-3.77L2.08-3.77L2.08-0.79ZM9.14 0L9.14-7.87L10.13-7.87L10.13 0L9.14 0ZM16.20 0.14L16.20 0.14Q15.45 0.14 14.83-0.14Q14.22-0.43 13.77-0.97Q13.33-1.50 13.08-2.26Q12.84-3.02 12.84-3.97L12.84-3.97Q12.84-4.92 13.08-5.67Q13.33-6.42 13.77-6.94Q14.22-7.46 14.83-7.74Q15.45-8.02 16.20-8.02L16.20-8.02Q16.94-8.02 17.56-7.73Q18.18-7.45 18.63-6.93Q19.08-6.41 19.32-5.66Q19.57-4.91 19.57-3.97L19.57-3.97Q19.57-3.02 19.32-2.26Q19.08-1.50 18.63-0.97Q18.18-0.43 17.56-0.14Q16.94 0.14 16.20 0.14ZM16.20-0.73L16.20-0.73Q16.72-0.73 17.15-0.96Q17.58-1.19 17.88-1.61Q18.19-2.04 18.36-2.63Q18.52-3.23 18.52-3.97L18.52-3.97Q18.52-4.70 18.36-5.29Q18.19-5.88 17.88-6.29Q17.58-6.70 17.15-6.92Q16.72-7.14 16.20-7.14L16.20-7.14Q15.67-7.14 15.24-6.92Q14.82-6.70 14.51-6.29Q14.20-5.88 14.04-5.29Q13.87-4.70 13.87-3.97L13.87-3.97Q13.87-3.23 14.04-2.63Q14.20-2.04 14.51-1.61Q14.82-1.19 15.24-0.96Q15.67-0.73 16.20-0.73ZM22.26 0L22.26-7.87L23.44-7.87L24.96-3.65L25.54-2.04L25.58-2.04L26.14-3.65L27.65-7.87L28.82-7.87L28.82 0L27.88 0L27.88-4.33Q27.88-4.86 27.92-5.50Q27.96-6.13 28.01-6.66L28.01-6.66L27.96-6.66L27.32-4.91L25.81-0.79L25.25-0.79L23.72-4.91L23.10-6.66L23.05-6.66Q23.09-6.13 23.14-5.50Q23.18-4.86 23.18-4.33L23.18-4.33L23.18 0L22.26 0ZM31.98 0L31.98-7.87L36.52-7.87L36.52-7.03L32.98-7.03L32.98-4.56L35.97-4.56L35.97-3.71L32.98-3.71L32.98-0.85L36.64-0.85L36.64 0L31.98 0ZM38.85-3.94L38.85-3.94Q38.85-4.88 39.12-5.64Q39.38-6.40 39.85-6.92Q40.32-7.45 40.96-7.73Q41.60-8.02 42.36-8.02L42.36-8.02Q43.08-8.02 43.62-7.72Q44.16-7.43 44.50-7.04L44.50-7.04L43.94-6.41Q43.63-6.74 43.25-6.94Q42.87-7.14 42.37-7.14L42.37-7.14Q41.80-7.14 41.35-6.92Q40.89-6.70 40.57-6.28Q40.24-5.87 40.06-5.28Q39.88-4.69 39.88-3.96L39.88-3.96Q39.88-3.22 40.06-2.62Q40.23-2.03 40.54-1.61Q40.86-1.19 41.31-0.96Q41.76-0.73 42.32-0.73L42.32-0.73Q42.90-0.73 43.32-0.96Q43.75-1.19 44.13-1.61L44.13-1.61L44.70-1.00Q44.23-0.46 43.64-0.16Q43.05 0.14 42.30 0.14L42.30 0.14Q41.55 0.14 40.92-0.13Q40.29-0.41 39.83-0.93Q39.37-1.45 39.11-2.21Q38.85-2.98 38.85-3.94ZM47.16 0L47.16-7.87L48.16-7.87L48.16-4.57L51.82-4.57L51.82-7.87L52.82-7.87L52.82 0L51.82 0L51.82-3.71L48.16-3.71L48.16 0L47.16 0ZM56.97-3.20L59.33-3.20L58.96-4.40Q58.74-5.06 58.55-5.72Q58.36-6.37 58.17-7.06L58.17-7.06L58.12-7.06Q57.94-6.37 57.75-5.72Q57.56-5.06 57.34-4.40L57.34-4.40L56.97-3.20ZM60.33 0L59.58-2.40L56.72-2.40L55.96 0L54.94 0L57.60-7.87L58.73-7.87L61.40 0L60.33 0ZM63.51 0L63.51-7.87L64.54-7.87L67.39-2.93L68.24-1.30L68.29-1.30Q68.25-1.90 68.21-2.54Q68.17-3.18 68.17-3.80L68.17-3.80L68.17-7.87L69.12-7.87L69.12 0L68.08 0L65.23-4.96L64.38-6.58L64.33-6.58Q64.38-5.98 64.42-5.36Q64.46-4.74 64.46-4.12L64.46-4.12L64.46 0L63.51 0ZM72.28 0L72.28-7.87L73.27-7.87L73.27 0L72.28 0ZM75.98-3.94L75.98-3.94Q75.98-4.88 76.24-5.64Q76.50-6.40 76.97-6.92Q77.44-7.45 78.08-7.73Q78.72-8.02 79.48-8.02L79.48-8.02Q80.20-8.02 80.74-7.72Q81.28-7.43 81.63-7.04L81.63-7.04L81.06-6.41Q80.75-6.74 80.37-6.94Q80.00-7.14 79.49-7.14L79.49-7.14Q78.93-7.14 78.47-6.92Q78.02-6.70 77.69-6.28Q77.37-5.87 77.19-5.28Q77.01-4.69 77.01-3.96L77.01-3.96Q77.01-3.22 77.18-2.62Q77.36-2.03 77.67-1.61Q77.98-1.19 78.43-0.96Q78.88-0.73 79.44-0.73L79.44-0.73Q80.02-0.73 80.45-0.96Q80.87-1.19 81.26-1.61L81.26-1.61L81.82-1.00Q81.35-0.46 80.76-0.16Q80.18 0.14 79.42 0.14L79.42 0.14Q78.68 0.14 78.05-0.13Q77.42-0.41 76.95-0.93Q76.49-1.45 76.23-2.21Q75.98-2.98 75.98-3.94ZM83.42-1.02L84.02-1.72Q84.44-1.27 85.01-1.00Q85.58-0.73 86.19-0.73L86.19-0.73Q86.97-0.73 87.40-1.09Q87.84-1.44 87.84-2.02L87.84-2.02Q87.84-2.32 87.73-2.53Q87.63-2.74 87.46-2.89Q87.28-3.04 87.04-3.16Q86.80-3.28 86.53-3.41L86.53-3.41L85.40-3.90Q85.12-4.02 84.84-4.19Q84.55-4.36 84.32-4.60Q84.09-4.84 83.95-5.17Q83.80-5.50 83.80-5.93L83.80-5.93Q83.80-6.37 83.99-6.76Q84.18-7.14 84.51-7.42Q84.84-7.70 85.29-7.86Q85.74-8.02 86.28-8.02L86.28-8.02Q86.98-8.02 87.58-7.75Q88.18-7.48 88.60-7.04L88.60-7.04L88.06-6.40Q87.70-6.74 87.27-6.94Q86.83-7.14 86.28-7.14L86.28-7.14Q85.62-7.14 85.21-6.83Q84.81-6.53 84.81-5.99L84.81-5.99Q84.81-5.70 84.93-5.50Q85.04-5.30 85.23-5.15Q85.42-5.00 85.65-4.89Q85.88-4.78 86.12-4.68L86.12-4.68L87.24-4.20Q87.57-4.06 87.87-3.87Q88.17-3.68 88.39-3.44Q88.60-3.19 88.73-2.86Q88.86-2.53 88.86-2.10L88.86-2.10Q88.86-1.63 88.67-1.22Q88.48-0.82 88.14-0.51Q87.79-0.20 87.30-0.03Q86.80 0.14 86.18 0.14L86.18 0.14Q85.35 0.14 84.64-0.17Q83.94-0.48 83.42-1.02L83.42-1.02Z" transform="translate(-1.08, 8.016)"></path></g></g></g></g></g><defs v-gra="od"></defs></g></svg>