<svg xmlns="http://www.w3.org/2000/svg" xmlns:xlink="http://www.w3.org/1999/xlink" version="1.0" x="0" y="0" width="2400" height="2679.6612907858453" viewBox="139.4 90.83431854248047 61.2 68.33136291503907" preserveAspectRatio="xMidYMid meet" color-interpolation-filters="sRGB"><g><defs><linearGradient id="92" x1="0%" y1="0%" x2="100%" y2="0%"><stop offset="0%" stop-color="#fa71cd"></stop> <stop offset="100%" stop-color="#9b59b6"></stop></linearGradient><linearGradient id="93" x1="0%" y1="0%" x2="100%" y2="0%"><stop offset="0%" stop-color="#f9d423"></stop> <stop offset="100%" stop-color="#f83600"></stop></linearGradient><linearGradient id="94" x1="0%" y1="0%" x2="100%" y2="0%"><stop offset="0%" stop-color="#0064d2"></stop> <stop offset="100%" stop-color="#1cb0f6"></stop></linearGradient><linearGradient id="95" x1="0%" y1="0%" x2="100%" y2="0%"><stop offset="0%" stop-color="#f00978"></stop> <stop offset="100%" stop-color="#3f51b1"></stop></linearGradient><linearGradient id="96" x1="0%" y1="0%" x2="100%" y2="0%"><stop offset="0%" stop-color="#7873f5"></stop> <stop offset="100%" stop-color="#ec77ab"></stop></linearGradient><linearGradient id="97" x1="0%" y1="0%" x2="100%" y2="0%"><stop offset="0%" stop-color="#f9d423"></stop> <stop offset="100%" stop-color="#e14fad"></stop></linearGradient><linearGradient id="98" x1="0%" y1="0%" x2="100%" y2="0%"><stop offset="0%" stop-color="#009efd"></stop> <stop offset="100%" stop-color="#2af598"></stop></linearGradient><linearGradient id="99" x1="0%" y1="0%" x2="100%" y2="0%"><stop offset="0%" stop-color="#ffcc00"></stop> <stop offset="100%" stop-color="#00b140"></stop></linearGradient><linearGradient id="100" x1="0%" y1="0%" x2="100%" y2="0%"><stop offset="0%" stop-color="#d51007"></stop> <stop offset="100%" stop-color="#ff8177"></stop></linearGradient><linearGradient id="102" x1="0%" y1="0%" x2="100%" y2="0%"><stop offset="0%" stop-color="#a2b6df"></stop> <stop offset="100%" stop-color="#0c3483"></stop></linearGradient><linearGradient id="103" x1="0%" y1="0%" x2="100%" y2="0%"><stop offset="0%" stop-color="#7ac5d8"></stop> <stop offset="100%" stop-color="#eea2a2"></stop></linearGradient><linearGradient id="104" x1="0%" y1="0%" x2="100%" y2="0%"><stop offset="0%" stop-color="#00ecbc"></stop> <stop offset="100%" stop-color="#007adf"></stop></linearGradient><linearGradient id="105" x1="0%" y1="0%" x2="100%" y2="0%"><stop offset="0%" stop-color="#b88746"></stop> <stop offset="100%" stop-color="#fdf5a6"></stop></linearGradient></defs><g class="imagesvg isNoFont" transform="translate(140,91.43431854248047)"><g><rect fill="#333" fill-opacity="0" stroke-width="2" x="0" y="0" width="60" height="67.13136489253388" class="image-rect"></rect> <svg filter="url(#colors7411117271)" x="0" y="0" width="60" height="67.13136489253388" filtersec="colorsf8019776118" class="image-svg-svg primary" style="overflow: visible;"><svg xmlns="http://www.w3.org/2000/svg" xmlns:xlink="http://www.w3.org/1999/xlink" version="1.1" x="0px" y="0px" viewBox="8.718185424804688 5 62.563636779785156 70" enable-background="new 0 0 80 80" xml:space="preserve"><g><circle cx="40" cy="40" r="4.6"></circle><path d="M64.4,40c0.8-0.9,1.6-1.8,2.3-2.8c4.4-5.9,5.7-11.1,3.6-14.7c-1.7-2.9-5.4-4.5-10.6-4.5c-2.3,0-4.8,0.3-7.5,0.9   c-0.4-1.2-0.8-2.3-1.3-3.4C48.1,8.8,44.2,5,40,5c-4.2,0-8.1,3.7-10.9,10.5c-0.5,1.1-0.9,2.2-1.3,3.4c-2.7-0.6-5.2-0.9-7.5-0.9   c-5.3,0-8.9,1.5-10.6,4.5c-2.1,3.6-0.8,8.9,3.6,14.7c0.7,0.9,1.5,1.9,2.3,2.8c-0.8,0.9-1.6,1.8-2.3,2.8c-4.4,5.9-5.7,11.1-3.6,14.7   c1.7,2.9,5.4,4.5,10.6,4.5c2.3,0,4.8-0.3,7.5-0.9c0.4,1.2,0.8,2.3,1.3,3.4C31.9,71.2,35.8,75,40,75c4.2,0,8.1-3.7,10.9-10.5   c0.5-1.1,0.9-2.2,1.3-3.4c2.7,0.6,5.2,0.9,7.5,0.9c5.3,0,8.9-1.5,10.6-4.5c2.1-3.6,0.8-8.9-3.6-14.7C66,41.8,65.2,40.9,64.4,40z    M59.7,19.6c5.9,0,8.3,2,9.2,3.7c1.7,3,0.4,7.7-3.5,13c-0.6,0.9-1.4,1.7-2.1,2.6c-2.4-2.5-5.3-5-8.5-7.4c-0.4-3.9-1.1-7.7-2.1-11   C55.2,19.9,57.5,19.6,59.7,19.6z M46.8,51.8c-2.3,1.3-4.5,2.5-6.8,3.5c-2.3-1-4.6-2.2-6.8-3.5c-2.3-1.3-4.4-2.7-6.4-4.1   c-0.2-2.5-0.4-5-0.4-7.7c0-2.6,0.1-5.2,0.4-7.7c2-1.4,4.2-2.8,6.4-4.1c2.3-1.3,4.5-2.5,6.8-3.5c2.3,1,4.6,2.2,6.8,3.5   c2.3,1.3,4.4,2.7,6.4,4.1c0.2,2.5,0.4,5,0.4,7.7c0,2.6-0.1,5.2-0.4,7.7C51.2,49.1,49.1,50.5,46.8,51.8z M53,49.8   c-0.4,3.4-1.1,6.6-1.9,9.5c-2.9-0.7-6-1.8-9.2-3.1c1.9-0.9,3.8-1.9,5.7-3C49.5,52.1,51.3,50.9,53,49.8z M38.1,56.1   c-3.1,1.3-6.2,2.4-9.2,3.1c-0.9-2.9-1.5-6.1-1.9-9.5c1.7,1.2,3.5,2.3,5.4,3.4C34.3,54.3,36.2,55.2,38.1,56.1z M25,46.4   c-2.7-2.1-5.2-4.2-7.2-6.4c2.1-2.2,4.5-4.4,7.2-6.4c-0.2,2.1-0.3,4.2-0.3,6.4C24.8,42.2,24.9,44.3,25,46.4z M27,30.2   c0.4-3.4,1.1-6.6,1.9-9.5c2.9,0.7,6,1.8,9.2,3.1c-1.9,0.9-3.8,1.9-5.7,3C30.5,27.9,28.7,29.1,27,30.2z M41.9,23.9   c3.1-1.3,6.2-2.4,9.2-3.1c0.9,2.9,1.5,6.1,1.9,9.5c-1.7-1.2-3.5-2.3-5.4-3.4C45.7,25.7,43.8,24.8,41.9,23.9z M55,33.6   c2.7,2.1,5.2,4.2,7.2,6.4c-2.1,2.2-4.5,4.4-7.2,6.4c0.2-2.1,0.3-4.2,0.3-6.4C55.2,37.8,55.1,35.7,55,33.6z M30.5,16.1   c2.6-6.1,6-9.5,9.5-9.5s6.9,3.5,9.5,9.5c0.4,1,0.8,2,1.2,3.1c-3.4,0.8-7,2.1-10.6,3.7c-3.6-1.6-7.2-2.9-10.6-3.7   C29.7,18.2,30.1,17.1,30.5,16.1z M14.6,36.3c-4-5.2-5.2-10-3.5-13c1.8-3,6-3.7,9.2-3.7c2.1,0,4.5,0.3,7,0.8c-1,3.4-1.7,7.1-2.1,11   c-3.2,2.3-6.1,4.8-8.5,7.4C16,38,15.3,37.1,14.6,36.3z M20.3,60.4c-5.9,0-8.3-2-9.2-3.7c-1.7-3-0.4-7.7,3.5-13   c0.6-0.9,1.4-1.7,2.1-2.6c2.4,2.5,5.3,5,8.5,7.4c0.4,3.9,1.1,7.7,2.1,11C24.8,60.1,22.5,60.4,20.3,60.4z M49.5,63.9   c-2.6,6.1-6,9.5-9.5,9.5s-6.9-3.5-9.5-9.5c-0.4-1-0.8-2-1.2-3.1c3.4-0.8,7-2.1,10.6-3.7c3.6,1.6,7.2,2.9,10.6,3.7   C50.3,61.8,49.9,62.9,49.5,63.9z M68.9,56.7c-1.8,3-6,3.7-9.2,3.7c-2.1,0-4.5-0.3-7-0.8c1-3.4,1.7-7.1,2.1-11   c3.2-2.3,6.1-4.8,8.5-7.4c0.8,0.9,1.5,1.7,2.1,2.6C69.4,49,70.6,53.7,68.9,56.7z"></path></g></svg></svg> <defs><filter id="colors7411117271"><feColorMatrix type="matrix" values="0 0 0 0 0.19921875  0 0 0 0 0.19921875  0 0 0 0 0.19921875  0 0 0 1 0" class="icon-feColorMatrix "></feColorMatrix></filter> <filter id="colorsf8019776118"><feColorMatrix type="matrix" values="0 0 0 0 0.99609375  0 0 0 0 0.99609375  0 0 0 0 0.99609375  0 0 0 1 0" class="icon-fecolormatrix"></feColorMatrix></filter> <filter id="colorsb2673619038"><feColorMatrix type="matrix" values="0 0 0 0 0  0 0 0 0 0  0 0 0 0 0  0 0 0 1 0" class="icon-fecolormatrix"></feColorMatrix></filter></defs></g></g><defs v-gra="od"></defs></g></svg>